<svg width="1087" height="681" xmlns="http://www.w3.org/2000/svg" xmlns:xlink="http://www.w3.org/1999/xlink" overflow="hidden"><defs><clipPath id="clip0"><rect x="44" y="4" width="1087" height="681"/></clipPath><clipPath id="clip1"><rect x="125" y="273" width="134" height="135"/></clipPath><clipPath id="clip2"><rect x="125" y="273" width="134" height="135"/></clipPath><clipPath id="clip3"><rect x="125" y="273" width="134" height="135"/></clipPath><clipPath id="clip4"><rect x="552" y="276" width="132" height="132"/></clipPath><clipPath id="clip5"><rect x="552" y="276" width="132" height="132"/></clipPath><clipPath id="clip6"><rect x="552" y="276" width="132" height="132"/></clipPath><clipPath id="clip7"><rect x="925" y="552" width="124" height="124"/></clipPath><clipPath id="clip8"><rect x="925" y="552" width="124" height="124"/></clipPath><clipPath id="clip9"><rect x="925" y="552" width="124" height="124"/></clipPath><clipPath id="clip10"><rect x="1031" y="258" width="96" height="96"/></clipPath><clipPath id="clip11"><rect x="1031" y="258" width="96" height="96"/></clipPath><clipPath id="clip12"><rect x="1031" y="258" width="96" height="96"/></clipPath><clipPath id="clip13"><rect x="557" y="562" width="122" height="122"/></clipPath><clipPath id="clip14"><rect x="557" y="562" width="122" height="122"/></clipPath><clipPath id="clip15"><rect x="557" y="562" width="122" height="122"/></clipPath></defs><g clip-path="url(#clip0)" transform="translate(-44 -4)"><text font-family="Calibri,Calibri_MSFontService,sans-serif" font-weight="400" font-size="24" transform="translate(595.777 34)">User</text><path d="M479 263.834C479 247.909 491.909 235 507.834 235L729.166 235C745.091 235 758 247.909 758 263.834L758 379.166C758 395.091 745.091 408 729.166 408L507.834 408C491.909 408 479 395.091 479 379.166Z" stroke="#C00000" stroke-width="6" stroke-miterlimit="8" fill="none" fill-rule="evenodd"/><text font-family="Calibri,Calibri_MSFontService,sans-serif" font-weight="400" font-size="32" transform="translate(567.88 279)">Context</text><path d="M573.5 72.3336C573.5 65.7981 578.798 60.5001 585.334 60.5001L652.667 60.5001C659.202 60.5001 664.5 65.7981 664.5 72.3336L664.5 119.666C664.5 126.202 659.202 131.5 652.667 131.5L585.334 131.5C578.798 131.5 573.5 126.202 573.5 119.666Z" stroke="#000000" stroke-width="3" stroke-miterlimit="8" fill="none" fill-rule="evenodd"/><rect x="600.5" y="49.5001" width="36" height="11" stroke="#000000" stroke-width="3" stroke-miterlimit="8" fill="none"/><rect x="591.5" y="131.5" width="55" height="7" stroke="#000000" stroke-width="3" stroke-miterlimit="8" fill="none"/><path d="M597.5 88.5001C597.5 86.2909 599.067 84.5001 601 84.5001 602.933 84.5001 604.5 86.2909 604.5 88.5001 604.5 90.7092 602.933 92.5001 601 92.5001 599.067 92.5001 597.5 90.7092 597.5 88.5001Z" stroke="#000000" stroke-width="1.33333" stroke-miterlimit="8" fill-rule="evenodd"/><path d="M633.5 88.5001C633.5 86.2909 635.067 84.5001 637 84.5001 638.933 84.5001 640.5 86.2909 640.5 88.5001 640.5 90.7092 638.933 92.5001 637 92.5001 635.067 92.5001 633.5 90.7092 633.5 88.5001Z" stroke="#000000" stroke-width="1.33333" stroke-miterlimit="8" fill-rule="evenodd"/><path d="M636.812 110.717C632.37 114.762 620.57 116.601 610.457 114.825 605.232 113.907 601.236 112.14 599.476 109.968" stroke="#000000" stroke-width="3" stroke-miterlimit="8" fill="none" fill-rule="evenodd"/><rect x="889.5" y="375.5" width="136" height="68" stroke="#000000" stroke-width="3" stroke-miterlimit="8" fill="#0070C0"/><text font-family="Calibri,Calibri_MSFontService,sans-serif" font-weight="400" font-size="21" transform="translate(898.315 403)">Pulse<tspan font-size="21" x="46" y="0">-</tspan><tspan font-size="21" x="0" y="26">Processing</tspan></text><rect x="991.5" y="359.5" width="20" height="16" stroke="#000000" stroke-width="3" stroke-miterlimit="8" fill="#0070C0"/><rect x="959.5" y="359.5" width="19" height="16" stroke="#000000" stroke-width="3" stroke-miterlimit="8" fill="#0070C0"/><rect x="926.5" y="359.5" width="20" height="16" stroke="#000000" stroke-width="3" stroke-miterlimit="8" fill="#0070C0"/><rect x="896.5" y="358.5" width="19" height="16" stroke="#000000" stroke-width="3" stroke-miterlimit="8" fill="#0070C0"/><rect x="889.5" y="217.5" width="137" height="63" stroke="#000000" stroke-width="3" stroke-miterlimit="8" fill="#F4B183" fill-opacity="0.501961"/><text font-family="Calibri,Calibri_MSFontService,sans-serif" font-weight="400" font-size="21" transform="translate(898.666 243)">Event<tspan font-size="21" x="48.26" y="0">-</tspan><tspan font-size="21" x="0" y="26">processing</tspan></text><rect x="994.5" y="203.5" width="20" height="14" stroke="#000000" stroke-width="3" stroke-miterlimit="8" fill="#F4B183" fill-opacity="0.501961"/><rect x="962.5" y="203.5" width="19" height="14" stroke="#000000" stroke-width="3" stroke-miterlimit="8" fill="#F4B183" fill-opacity="0.501961"/><rect x="929.5" y="203.5" width="20" height="14" stroke="#000000" stroke-width="3" stroke-miterlimit="8" fill="#F4B183" fill-opacity="0.501961"/><rect x="899.5" y="202.5" width="19" height="15" stroke="#000000" stroke-width="3" stroke-miterlimit="8" fill="#F4B183" fill-opacity="0.501961"/><rect x="889.5" y="296.5" width="134" height="61" stroke="#000000" stroke-width="3" stroke-miterlimit="8" fill="#009E47"/><text font-family="Calibri,Calibri_MSFontService,sans-serif" font-weight="400" font-size="21" transform="translate(898.547 321)">Peak<tspan font-size="21" x="41.0734" y="0">-</tspan><tspan font-size="21" x="0" y="26">processing</tspan></text><rect x="990.5" y="281.5" width="19" height="15" stroke="#000000" stroke-width="3" stroke-miterlimit="8" fill="#009E47"/><rect x="958.5" y="281.5" width="19" height="15" stroke="#000000" stroke-width="3" stroke-miterlimit="8" fill="#009E47"/><rect x="927.5" y="281.5" width="19" height="15" stroke="#000000" stroke-width="3" stroke-miterlimit="8" fill="#009E47"/><rect x="897.5" y="281.5" width="19" height="14" stroke="#000000" stroke-width="3" stroke-miterlimit="8" fill="#009E47"/><g clip-path="url(#clip1)"><g clip-path="url(#clip2)"><g clip-path="url(#clip3)"><path d="M106.083 25.125C106.083 31.2922 88.5851 36.2917 67 36.2917 45.4149 36.2917 27.9167 31.2922 27.9167 25.125 27.9167 18.9578 45.4149 13.9583 67 13.9583 88.5851 13.9583 106.083 18.9578 106.083 25.125Z" transform="matrix(1 0 0 1.00746 125 273)"/><path d="M94.9167 53.0417C93.2417 53.0417 92.125 51.925 92.125 50.25 92.125 48.575 93.2417 47.4583 94.9167 47.4583 96.5917 47.4583 97.7083 48.575 97.7083 50.25 97.7083 51.925 96.5917 53.0417 94.9167 53.0417ZM67 41.875C45.5042 41.875 27.9167 36.85 27.9167 30.7083L27.9167 53.0417C27.9167 59.1833 45.5042 64.2083 67 64.2083 88.4958 64.2083 106.083 59.1833 106.083 53.0417L106.083 30.7083C106.083 36.85 88.4958 41.875 67 41.875Z" transform="matrix(1 0 0 1.00746 125 273)"/><path d="M94.9167 80.9583C93.2417 80.9583 92.125 79.8417 92.125 78.1667 92.125 76.4917 93.2417 75.375 94.9167 75.375 96.5917 75.375 97.7083 76.4917 97.7083 78.1667 97.7083 79.8417 96.5917 80.9583 94.9167 80.9583ZM67 69.7917C45.5042 69.7917 27.9167 64.7667 27.9167 58.625L27.9167 80.9583C27.9167 87.1 45.5042 92.125 67 92.125 88.4958 92.125 106.083 87.1 106.083 80.9583L106.083 58.625C106.083 64.7667 88.4958 69.7917 67 69.7917Z" transform="matrix(1 0 0 1.00746 125 273)"/><path d="M94.9167 108.875C93.2417 108.875 92.125 107.758 92.125 106.083 92.125 104.408 93.2417 103.292 94.9167 103.292 96.5917 103.292 97.7083 104.408 97.7083 106.083 97.7083 107.758 96.5917 108.875 94.9167 108.875ZM67 97.7083C45.5042 97.7083 27.9167 92.6833 27.9167 86.5417L27.9167 108.875C27.9167 115.017 45.5042 120.042 67 120.042 88.4958 120.042 106.083 115.017 106.083 108.875L106.083 86.5417C106.083 92.6833 88.4958 97.7083 67 97.7083Z" transform="matrix(1 0 0 1.00746 125 273)"/></g></g></g><g clip-path="url(#clip4)"><g clip-path="url(#clip5)"><g clip-path="url(#clip6)"><path d="M668.875 327.425C666.537 321.788 660.075 319.175 654.438 321.513 649.763 323.438 647.013 328.388 647.7 333.2L629.963 340.625C628.037 337.325 624.6 334.85 620.75 334.163L620.75 315.05C625.425 313.812 629 309.55 629 304.462 629 298.413 624.05 293.462 618 293.462L618 293.462C611.95 293.462 607 298.413 607 304.462 607 309.55 610.575 313.812 615.25 315.05L615.25 334.025C611.263 334.712 607.963 337.188 606.037 340.487L588.3 333.062C588.987 328.25 586.375 323.3 581.562 321.375 575.925 319.038 569.463 321.65 567.125 327.288 564.787 332.925 567.4 339.388 573.037 341.725 577.713 343.65 583.075 342.138 585.963 338.15L604.112 345.575C603.975 346.125 603.975 346.812 603.975 347.362 603.975 350.388 604.938 353.275 606.725 355.612L592.425 370.05C588.162 367.575 582.662 368.125 579.088 371.7 574.825 375.962 574.825 382.975 579.088 387.237 583.35 391.5 590.362 391.5 594.625 387.237 598.2 383.663 598.75 378.163 596.275 373.9L610.85 359.325C612.912 360.562 615.25 361.25 617.725 361.25 617.862 361.25 617.862 361.25 618 361.25 618.138 361.25 618.138 361.25 618.275 361.25 620.75 361.25 623.088 360.562 625.15 359.325L639.725 373.9C637.25 378.163 637.8 383.663 641.375 387.375 645.638 391.638 652.65 391.638 656.912 387.375 661.175 383.112 661.175 376.1 656.912 371.837 653.338 368.263 647.838 367.712 643.575 370.188L629.275 355.75C631.062 353.413 632.025 350.663 632.025 347.5 632.025 346.95 632.025 346.263 631.888 345.712L650.037 338.288C652.925 342.138 658.287 343.788 662.963 341.862 668.463 339.388 671.213 333.062 668.875 327.425Z" fill="#7F7F7F"/></g></g></g><g clip-path="url(#clip7)"><g clip-path="url(#clip8)"><g clip-path="url(#clip9)"><path d="M1039.57 608.575C1039.31 608.317 1038.93 608.058 1038.67 607.8L1038.67 583C1038.67 580.158 1036.34 577.833 1033.5 577.833L940.5 577.833C937.658 577.833 935.333 580.158 935.333 583L935.333 645C935.333 647.842 937.658 650.167 940.5 650.167L1033.5 650.167C1036.34 650.167 1038.67 647.842 1038.67 645L1038.67 620.458 1039.57 619.554C1040.99 618.133 1041.9 616.196 1041.9 614.129 1041.9 611.933 1041.12 609.996 1039.57 608.575ZM1030.92 642.417 943.083 642.417 943.083 585.583 1030.92 585.583 1030.92 606.896C1030.14 607.283 1029.37 607.8 1028.59 608.446L1025.75 611.417 1025.75 590.75 948.25 590.75 948.25 637.25 1025.75 637.25 1025.75 632.213C1026.78 631.825 1027.82 631.179 1028.59 630.404L1030.92 628.208 1030.92 642.417ZM989.842 616.454C990.617 619.942 991.004 622.008 989.196 623.3 987.388 624.592 985.321 623.3 984.287 622.525 976.667 617.617 965.558 606.508 965.171 606.121 964.138 605.088 964.138 603.537 965.171 602.504 966.204 601.471 967.754 601.471 968.787 602.504 968.917 602.633 977.7 611.287 984.546 616.583 984.029 614.388 983.513 611.546 983.125 607.929 982.608 603.667 984.546 602.375 985.708 601.858 987.775 601.083 991.133 601.6 999.787 609.996 1004.18 614.258 1008.96 619.683 1010.38 622.138 1011.15 623.3 1010.77 624.979 1009.47 625.625 1009.09 625.883 1008.57 626.013 1008.18 626.013 1007.28 626.013 1006.5 625.625 1005.99 624.721 1002.5 619.037 992.037 609.479 988.292 607.283 988.679 611.158 989.325 614.258 989.842 616.454ZM1035.95 615.808 1024.97 626.787C1023.94 627.821 1022.39 627.821 1021.36 626.787 1020.33 625.754 1020.33 624.204 1021.36 623.171L1032.34 612.192C1033.37 611.158 1034.92 611.158 1035.95 612.192 1036.99 613.225 1036.99 614.775 1035.95 615.808Z"/></g></g></g><g clip-path="url(#clip10)"><g clip-path="url(#clip11)"><g clip-path="url(#clip12)"><path d="M1079 318C1072.4 318 1067 312.6 1067 306 1067 299.4 1072.4 294 1079 294 1085.6 294 1091 299.4 1091 306 1091 312.6 1085.6 318 1079 318ZM1106 298.5C1105.4 296.3 1104.5 294.2 1103.4 292.3L1105.9 284.8 1100.2 279.1 1092.7 281.6C1090.7 280.5 1088.6 279.6 1086.4 279L1083 272 1075 272 1071.5 279C1069.3 279.6 1067.2 280.5 1065.3 281.6L1057.8 279.1 1052.1 284.8 1054.6 292.3C1053.5 294.3 1052.6 296.4 1052 298.6L1045 302 1045 310 1052 313.5C1052.6 315.7 1053.5 317.8 1054.6 319.7L1052.1 327.2 1057.8 332.9 1065.3 330.4C1067.3 331.5 1069.4 332.4 1071.6 333L1075.1 340 1083.1 340 1086.6 333C1088.8 332.4 1090.9 331.5 1092.8 330.4L1100.3 332.9 1106 327.2 1103.5 319.7C1104.6 317.7 1105.5 315.6 1106.1 313.4L1113.1 309.9 1113.1 301.9 1106 298.5Z"/></g></g></g><g clip-path="url(#clip13)"><g clip-path="url(#clip14)"><g clip-path="url(#clip15)"><path d="M569.708 605.208 578.604 605.208 578.604 610.292 569.708 610.292Z"/><path d="M569.708 595.042 578.604 595.042 578.604 600.125 569.708 600.125Z"/><path d="M569.708 615.375 578.604 615.375 578.604 620.458 569.708 620.458Z"/><path d="M569.708 645.875 578.604 645.875 578.604 650.958 569.708 650.958Z"/><path d="M569.708 635.708 578.604 635.708 578.604 640.792 569.708 640.792Z"/><path d="M569.708 625.542 578.604 625.542 578.604 630.625 569.708 630.625Z"/><path d="M657.396 635.708 666.292 635.708 666.292 640.792 657.396 640.792Z"/><path d="M657.396 645.875 666.292 645.875 666.292 650.958 657.396 650.958Z"/><path d="M657.396 625.542 666.292 625.542 666.292 630.625 657.396 630.625Z"/><path d="M657.396 595.042 666.292 595.042 666.292 600.125 657.396 600.125Z"/><path d="M657.396 615.375 666.292 615.375 666.292 620.458 657.396 620.458Z"/><path d="M657.396 605.208 666.292 605.208 666.292 610.292 657.396 610.292Z"/><path d="M620.542 574.708 625.625 574.708 625.625 583.604 620.542 583.604Z"/><path d="M640.875 574.708 645.958 574.708 645.958 583.604 640.875 583.604Z"/><path d="M630.708 574.708 635.792 574.708 635.792 583.604 630.708 583.604Z"/><path d="M610.375 574.708 615.458 574.708 615.458 583.604 610.375 583.604Z"/><path d="M590.042 574.708 595.125 574.708 595.125 583.604 590.042 583.604Z"/><path d="M600.208 574.708 605.292 574.708 605.292 583.604 600.208 583.604Z"/><path d="M600.208 662.396 605.292 662.396 605.292 671.292 600.208 671.292Z"/><path d="M590.042 662.396 595.125 662.396 595.125 671.292 590.042 671.292Z"/><path d="M610.375 662.396 615.458 662.396 615.458 671.292 610.375 671.292Z"/><path d="M620.542 662.396 625.625 662.396 625.625 671.292 620.542 671.292Z"/><path d="M630.708 662.396 635.792 662.396 635.792 671.292 630.708 671.292Z"/><path d="M640.875 662.396 645.958 662.396 645.958 671.292 640.875 671.292Z"/><path d="M601.479 606.479 634.521 606.479 634.521 639.521 601.479 639.521Z"/><path d="M647.229 588.688 588.771 588.688C585.963 588.688 583.688 590.963 583.688 593.771L583.688 652.229C583.688 655.037 585.963 657.312 588.771 657.312L647.229 657.312C650.037 657.312 652.312 655.037 652.312 652.229L652.312 593.771C652.312 590.963 650.037 588.688 647.229 588.688ZM639.604 644.604 596.396 644.604 596.396 601.396 639.604 601.396Z"/></g></g></g><path d="M47 263.834C47 247.909 59.9093 235 75.8338 235L298.166 235C314.091 235 327 247.909 327 263.834L327 379.166C327 395.091 314.091 408 298.166 408L75.8338 408C59.9093 408 47 395.091 47 379.166Z" stroke="#C00000" stroke-width="6" stroke-miterlimit="8" fill="none" fill-rule="evenodd"/><text font-family="Calibri,Calibri_MSFontService,sans-serif" font-weight="400" font-size="32" transform="translate(137.709 279)">Storage</text><path d="M479 536.834C479 520.909 491.909 508 507.834 508L729.166 508C745.091 508 758 520.909 758 536.834L758 652.166C758 668.091 745.091 681 729.166 681L507.834 681C491.909 681 479 668.091 479 652.166Z" stroke="#C00000" stroke-width="6" stroke-miterlimit="8" fill="none" fill-rule="evenodd"/><text font-family="Calibri,Calibri_MSFontService,sans-serif" font-weight="400" font-size="32" transform="translate(555.033 551)">Processor</text><path d="M848 166.668C848 140.894 868.894 120 894.668 120L1081.33 120C1107.11 120 1128 140.894 1128 166.668L1128 406.332C1128 432.106 1107.11 453 1081.33 453L894.668 453C868.894 453 848 432.106 848 406.332Z" stroke="#C00000" stroke-width="6" stroke-miterlimit="8" fill="none" fill-rule="evenodd"/><text font-family="Calibri,Calibri_MSFontService,sans-serif" font-weight="400" font-size="32" transform="translate(941.828 168)">Plugins</text><path d="M847 537.667C847 521.835 859.835 509 875.667 509L1098.33 509C1114.17 509 1127 521.835 1127 537.667L1127 652.333C1127 668.165 1114.17 681 1098.33 681L875.667 681C859.835 681 847 668.165 847 652.333Z" stroke="#C00000" stroke-width="6" stroke-miterlimit="8" fill="none" fill-rule="evenodd"/><text font-family="Calibri,Calibri_MSFontService,sans-serif" font-weight="400" font-size="32" transform="translate(936.039 552)">Options</text><path d="M15-2.99999 136.975-2.99991 136.975 3.00009 15 3.00001ZM18 9.00001 0 0 18-8.99999ZM133.975-8.99991 151.975 0.000104987 133.975 9.00009Z" fill="#0070C0" transform="matrix(-1 0 0 1 478.975 322)"/><path d="M621 423 621 493.25 615 493.25 615 423ZM609 426 618 408 627 426ZM627 490.25 618 508.25 609 490.25Z" fill="#0070C0"/><path d="M621.078 155.984 621.419 221.217 615.42 221.249 615.078 156.016ZM609.094 159.047 618 141 627.094 158.953ZM627.404 218.186 618.498 236.233 609.404 218.28Z" fill="#0070C0"/><path d="M3.25351 14.9471 3.68768 40.5897-2.31146 40.6913-2.74563 15.0486ZM-8.69398 18.1498 0 0 9.30343 17.8451ZM9.63603 37.4885 0.942047 55.6383-8.36139 37.7933Z" fill="#0070C0" transform="matrix(-1 0 0 1 987.942 453)"/><path d="M15.065 2.65393 77.4564 26.9805 75.2768 32.5706 12.8854 8.24404ZM13.5009 14.924 0 0 20.0397-1.84637ZM76.841 20.3006 90.3419 35.2246 70.3022 37.0709Z" fill="#0070C0" transform="matrix(-1 0 0 1 848.342 286)"/><text font-family="Calibri,Calibri_MSFontService,sans-serif" font-weight="400" font-size="24" transform="translate(583.87 196)">A<tspan font-size="24" x="-186.408" y="110">B</tspan><tspan font-size="24" x="7.55359" y="269">C</tspan><tspan font-size="24" x="209.44" y="96">D</tspan><tspan font-size="24" x="369.431" y="291">E</tspan></text></g></svg>