<?xml version="1.0" encoding="UTF-8" standalone="no"?>
<!DOCTYPE svg PUBLIC "-//W3C//DTD SVG 1.1//EN"
 "http://www.w3.org/Graphics/SVG/1.1/DTD/svg11.dtd">
<!-- Generated by graphviz version 2.38.0 (20140413.2041)
 -->
<!-- Title: %3 Pages: 1 -->
<svg width="349pt" height="476pt"
 viewBox="0.00 0.00 348.59 476.00" xmlns="http://www.w3.org/2000/svg" xmlns:xlink="http://www.w3.org/1999/xlink">
<g id="graph0" class="graph" transform="scale(1 1) rotate(0) translate(4 472)">
<title>%3</title>
<polygon fill="white" stroke="none" points="-4,4 -4,-472 344.587,-472 344.587,4 -4,4"/>
<!-- event_basics -->
<g id="node1" class="node"><title>event_basics</title>
<ellipse fill="#99ff99" stroke="black" cx="137.594" cy="-450" rx="55.7903" ry="18"/>
<text text-anchor="middle" x="137.594" y="-446.3" font-family="Times,serif" font-size="14.00">event_basics</text>
</g>
<!-- events -->
<g id="node2" class="node"><title>events</title>
<ellipse fill="lightgray" stroke="black" cx="57.5936" cy="-378" rx="33.2948" ry="18"/>
<text text-anchor="middle" x="57.5936" y="-374.3" font-family="Times,serif" font-size="14.00">events</text>
</g>
<!-- event_basics&#45;&gt;events -->
<g id="edge1" class="edge"><title>event_basics&#45;&gt;events</title>
<path fill="none" stroke="black" d="M119.039,-432.765C108.088,-423.183 94.0924,-410.936 82.2252,-400.553"/>
<polygon fill="black" stroke="black" points="84.2436,-397.668 74.413,-393.717 79.634,-402.936 84.2436,-397.668"/>
</g>
<!-- peak_basics -->
<g id="node3" class="node"><title>peak_basics</title>
<ellipse fill="lightgray" stroke="black" cx="113.594" cy="-234" rx="53.0913" ry="18"/>
<text text-anchor="middle" x="113.594" y="-230.3" font-family="Times,serif" font-size="14.00">peak_basics</text>
</g>
<!-- event_basics&#45;&gt;peak_basics -->
<g id="edge2" class="edge"><title>event_basics&#45;&gt;peak_basics</title>
<path fill="none" stroke="black" d="M139.941,-431.828C143.484,-402.116 148.682,-339.365 137.594,-288 135.633,-278.916 131.982,-269.517 128.108,-261.201"/>
<polygon fill="black" stroke="black" points="131.132,-259.42 123.548,-252.022 124.863,-262.534 131.132,-259.42"/>
</g>
<!-- peak_classification -->
<g id="node4" class="node"><title>peak_classification</title>
<ellipse fill="#99ff99" stroke="black" cx="262.594" cy="-306" rx="77.9862" ry="18"/>
<text text-anchor="middle" x="262.594" y="-302.3" font-family="Times,serif" font-size="14.00">peak_classification</text>
</g>
<!-- event_basics&#45;&gt;peak_classification -->
<g id="edge3" class="edge"><title>event_basics&#45;&gt;peak_classification</title>
<path fill="none" stroke="black" d="M152.177,-432.433C174.076,-407.556 215.588,-360.398 241.003,-331.526"/>
<polygon fill="black" stroke="black" points="243.735,-333.72 247.715,-323.902 238.481,-329.095 243.735,-333.72"/>
</g>
<!-- n_competing -->
<g id="node5" class="node"><title>n_competing</title>
<ellipse fill="lightgray" stroke="black" cx="71.5936" cy="-306" rx="57.3905" ry="18"/>
<text text-anchor="middle" x="71.5936" y="-302.3" font-family="Times,serif" font-size="14.00">n_competing</text>
</g>
<!-- event_basics&#45;&gt;n_competing -->
<g id="edge4" class="edge"><title>event_basics&#45;&gt;n_competing</title>
<path fill="none" stroke="black" d="M130.857,-432.085C123.56,-414.043 111.377,-384.721 99.5936,-360 95.3645,-351.127 90.4444,-341.587 85.919,-333.079"/>
<polygon fill="black" stroke="black" points="88.8561,-331.151 81.0353,-324.004 82.6919,-334.468 88.8561,-331.151"/>
</g>
<!-- events&#45;&gt;peak_basics -->
<g id="edge5" class="edge"><title>events&#45;&gt;peak_basics</title>
<path fill="none" stroke="black" d="M37.8724,-363.256C26.0688,-353.762 12.1278,-339.99 5.59363,-324 -0.45885,-309.189 -2.86861,-301.579 5.59363,-288 17.8552,-268.324 39.788,-255.747 60.7002,-247.811"/>
<polygon fill="black" stroke="black" points="61.9183,-251.093 70.1982,-244.483 59.6034,-244.487 61.9183,-251.093"/>
</g>
<!-- events&#45;&gt;n_competing -->
<g id="edge6" class="edge"><title>events&#45;&gt;n_competing</title>
<path fill="none" stroke="black" d="M60.9826,-360.055C62.5245,-352.346 64.3882,-343.027 66.1208,-334.364"/>
<polygon fill="black" stroke="black" points="69.6094,-334.768 68.1386,-324.275 62.7453,-333.395 69.6094,-334.768"/>
</g>
<!-- peaks -->
<g id="node6" class="node"><title>peaks</title>
<ellipse fill="none" stroke="black" cx="113.594" cy="-162" rx="30.5947" ry="18"/>
<text text-anchor="middle" x="113.594" y="-158.3" font-family="Times,serif" font-size="14.00">peaks</text>
</g>
<!-- peak_basics&#45;&gt;peaks -->
<g id="edge7" class="edge"><title>peak_basics&#45;&gt;peaks</title>
<path fill="none" stroke="black" d="M113.594,-215.697C113.594,-207.983 113.594,-198.712 113.594,-190.112"/>
<polygon fill="black" stroke="black" points="117.094,-190.104 113.594,-180.104 110.094,-190.104 117.094,-190.104"/>
</g>
<!-- peak_classification&#45;&gt;peak_basics -->
<g id="edge11" class="edge"><title>peak_classification&#45;&gt;peak_basics</title>
<path fill="none" stroke="black" d="M229.895,-289.638C207.207,-278.979 176.872,-264.728 152.872,-253.453"/>
<polygon fill="black" stroke="black" points="154.221,-250.22 143.682,-249.135 151.244,-256.555 154.221,-250.22"/>
</g>
<!-- n_competing&#45;&gt;peak_basics -->
<g id="edge10" class="edge"><title>n_competing&#45;&gt;peak_basics</title>
<path fill="none" stroke="black" d="M81.7607,-288.055C86.7132,-279.801 92.7728,-269.701 98.271,-260.538"/>
<polygon fill="black" stroke="black" points="101.376,-262.165 103.52,-251.789 95.374,-258.563 101.376,-262.165"/>
</g>
<!-- records -->
<g id="node7" class="node"><title>records</title>
<ellipse fill="none" stroke="black" cx="113.594" cy="-90" rx="36.2938" ry="18"/>
<text text-anchor="middle" x="113.594" y="-86.3" font-family="Times,serif" font-size="14.00">records</text>
</g>
<!-- peaks&#45;&gt;records -->
<g id="edge8" class="edge"><title>peaks&#45;&gt;records</title>
<path fill="none" stroke="black" d="M113.594,-143.697C113.594,-135.983 113.594,-126.712 113.594,-118.112"/>
<polygon fill="black" stroke="black" points="117.094,-118.104 113.594,-108.104 110.094,-118.104 117.094,-118.104"/>
</g>
<!-- raw_records -->
<g id="node8" class="node"><title>raw_records</title>
<ellipse fill="none" stroke="black" cx="113.594" cy="-18" rx="53.8905" ry="18"/>
<text text-anchor="middle" x="113.594" y="-14.3" font-family="Times,serif" font-size="14.00">raw_records</text>
</g>
<!-- records&#45;&gt;raw_records -->
<g id="edge9" class="edge"><title>records&#45;&gt;raw_records</title>
<path fill="none" stroke="black" d="M113.594,-71.6966C113.594,-63.9827 113.594,-54.7125 113.594,-46.1124"/>
<polygon fill="black" stroke="black" points="117.094,-46.1043 113.594,-36.1043 110.094,-46.1044 117.094,-46.1043"/>
</g>
</g>
</svg>
